<svg height="100%" version="1.1" width="100%" xmlns="http://www.w3.org/2000/svg" preserveAspectRatio="xMidYMid meet" viewBox="0 0 600 442" xmlns:xlink="http://www.w3.org/1999/xlink"><desc>Created with Snap</desc><defs/><g id="root" contentwidth="199.99999999999997" contentheight="126.8617483737675">
          <rect class="background" height="2000%" width="2000%" y="-1000%" x="-1000%" style="" fill="none"/>
          <rect class="watermarklayer" height="100%" width="100%" y="0" x="0" style="" fill="none"/>
          <g class="content" id="content" transform="matrix(2.0462,0,0,2.0462,194.1479,288.4432)">
            <g class="icon">
            </g>
            <g id="icon_name_and_slogan_gap">
            </g>
            <g class="name_and_slogan" id="name_and_slogan_id">
              <g class="name"><g id="nameDefaultGroup"><path d="M6.370000000000001 -54.080000000000005Q2.8600000000000003 -59.93000000000001 2.8600000000000003 -60.839999999999996Q2.8600000000000003 -61.75 4.03 -62.92Q5.07 -63.96000000000001 5.9799999999999995 -63.96000000000001Q6.89 -63.96000000000001 7.54 -63.44Q8.06 -62.92 11.700000000000001 -57.589999999999996Q15.340000000000002 -52.260000000000005 18.98 -46.67Q22.619999999999997 -40.95 23.27 -40.95Q23.790000000000003 -40.95 27.3 -45.89Q30.680000000000003 -50.830000000000005 34.71 -56.550000000000004Q38.74 -62.14 39.26 -62.660000000000004Q39.910000000000004 -63.31000000000001 41.080000000000005 -62.92Q42.38 -62.53 43.29 -61.36000000000001Q44.2 -60.32 43.94 -59.410000000000004Q43.550000000000004 -58.5 40.17 -53.17Q36.92 -47.839999999999996 31.980000000000004 -41.34Q27.040000000000003 -34.71 26.650000000000002 -34.190000000000005Q26.26 -33.67 26.52 -25.090000000000003Q26.650000000000002 -16.509999999999998 26.52 -10.66Q26.26 -4.8100000000000005 26.130000000000003 -3.9000000000000004Q26 -2.8600000000000003 24.31 -2.6Q22.619999999999997 -2.21 21.45 -2.6Q20.150000000000002 -2.8600000000000003 19.759999999999998 -3.6399999999999997Q19.37 -4.42 19.37 -10.790000000000001Q19.37 -17.16 19.5 -25.35Q19.759999999999998 -33.67 19.5 -34.06Q19.37 -34.32 14.559999999999999 -41.34Q9.879999999999999 -48.230000000000004 6.370000000000001 -54.080000000000005" style="" fill="#3e5efa" id="name-lt-0"/><path d="M53.29777777777777 -29.1Q58.09777777777777 -32.3 62.59777777777777 -31.9Q67.09777777777776 -31.5 69.29777777777777 -30.4Q71.59777777777776 -29.2 72.09777777777776 -28.4Q72.69777777777777 -27.6 72.29777777777777 -26.9Q71.79777777777777 -26.2 71.09777777777776 -25.5Q70.39777777777778 -24.8 69.99777777777777 -24.9Q69.59777777777776 -25 67.49777777777777 -26Q65.39777777777778 -27 61.99777777777777 -27.1Q58.59777777777777 -27.3 55.69777777777777 -24.8Q52.69777777777777 -22.2 52.19777777777777 -17.6Q51.59777777777777 -12.9 54.69777777777777 -9.8Q57.79777777777777 -6.8 61.69777777777777 -6.8Q65.69777777777777 -6.8 67.79777777777777 -8.2Q69.89777777777778 -9.6 70.29777777777777 -9.8Q70.69777777777777 -10.1 71.59777777777776 -9.8Q72.39777777777778 -9.6 72.99777777777777 -8.9Q73.49777777777777 -8.2 73.09777777777776 -6.9Q72.69777777777777 -5.6 69.49777777777777 -3.7Q66.19777777777777 -1.7 60.19777777777777 -2Q54.09777777777777 -2.2 49.89777777777777 -7.5Q45.69777777777777 -12.7 47.09777777777777 -19.3Q48.49777777777777 -25.9 53.29777777777777 -29.1zM51.89777777777777 -35Q50.49777777777777 -34 50.29777777777777 -33.5Q50.19777777777777 -32.9 49.29777777777777 -34.3Q48.49777777777777 -35.7 48.79777777777777 -37.8Q49.09777777777777 -39.9 49.89777777777777 -40.4Q50.79777777777777 -40.8 52.69777777777777 -39.9Q54.69777777777777 -39.1 55.39777777777777 -38.1Q56.09777777777777 -37.1 56.19777777777777 -36.8Q56.39777777777777 -36.6 54.79777777777777 -36.3Q53.29777777777777 -36 51.89777777777777 -35zM65.09777777777776 -41.3Q65.69777777777777 -42.8 66.49777777777777 -43.7Q67.29777777777777 -44.7 68.59777777777776 -44.4Q69.89777777777778 -44.2 70.99777777777777 -42.3Q72.09777777777776 -40.5 72.09777777777776 -39.2Q72.09777777777776 -38 70.59777777777776 -38.2Q68.99777777777777 -38.5 67.09777777777776 -38.1Q65.09777777777776 -37.7 64.79777777777777 -37.8Q64.49777777777777 -38 64.49777777777777 -39Q64.49777777777777 -39.9 65.09777777777776 -41.3" style="" fill="#e91e63" id="name-lt-1"/><path d="M84.47555555555554 -17.4Q76.37555555555554 -28.4 75.97555555555554 -29.1Q75.47555555555554 -29.8 76.97555555555554 -30.8Q78.37555555555554 -31.8 79.17555555555555 -31.8Q80.07555555555554 -31.8 87.57555555555554 -21.7Q94.67555555555555 -31.2 95.07555555555554 -31.6Q95.47555555555554 -32.1 96.77555555555554 -31.8Q98.07555555555554 -31.5 98.87555555555554 -30.4Q99.67555555555555 -29.2 90.97555555555554 -17.4Q99.67555555555555 -6.5 100.27555555555554 -5.9Q100.87555555555554 -5.3 100.37555555555554 -4.4Q99.97555555555554 -3.4 98.87555555555554 -2.8Q97.77555555555554 -2.2 97.27555555555554 -2.4Q96.87555555555554 -2.5 87.87555555555554 -13.2Q79.47555555555554 -2.8 79.17555555555555 -2.4Q78.87555555555554 -2 77.77555555555554 -2.4Q76.67555555555555 -2.8 76.07555555555554 -3.7Q75.47555555555554 -4.5 75.77555555555554 -5.1Q76.07555555555554 -5.6 84.47555555555554 -17.4" style="" fill="#025c05" id="name-lt-2"/></g></g>
              <g class="slogan"><g id="sloganDefaultGroup"/></g>
            </g>
            <g class="border">
            </g>
          </g>
          <defs id="defs">
            <mask xmlns="http://www.w3.org/2000/svg" id="mask">
                <rect id="showAll" fill="white" x="0" y="0" width="0" height="0"/>
                <rect id="hideNameBg" fill="black" x="0" y="0" width="0" height="0" stroke-width="2" stroke="black"/>
                <rect id="hideSloganBg" fill="black" x="0" y="0" width="0" height="0" stroke-width="2" stroke="black"/>
            </mask>
          
          </defs>
        </g>
        </svg>